<svg display="none" xmlns="http://www.w3.org/2000/svg">
    <symbol width="33" height="22" viewBox="0 0 33 22" id="burger-icon">
        <line x1="0" y1="2" x2="33" y2="2" stroke-width="3"/>
        <line x1="0" y1="11" x2="33" y2="11" stroke-width="3"/>
        <line x1="0" y1="20" x2="33" y2="20" stroke-width="3"/>
    </symbol>

    <symbol viewBox="0 0 25 22" id="cross-icon">
        <line x1="0" y1="0" x2="25" y2="22" stroke-width="3"/>
        <line x1="0" y1="22" x2="25" y2="0" stroke-width="3"/>
    </symbol>

    <symbol viewBox="0 0 24 24" id="close-icon">
        <path d="M19 6.41L17.59 5 12 10.59 6.41 5 5 6.41 10.59 12 5 17.59 6.41 19 12 13.41 17.59 19 19 17.59 13.41 12z"/>
    </symbol>

    <symbol width="93" height="29" viewBox="0 0 93 29" id="logo-icon">
        <g clip-path="url(#clip0_1_4)">
        <path d="M6.20173 27.5217V10.7217H14.1457C16.0017 10.7217 17.6337 11.0657 19.0417 11.7537C20.4497 12.4417 21.5457 13.4097 22.3297 14.6577C23.1297 15.9057 23.5297 17.3937 23.5297 19.1217C23.5297 20.8337 23.1297 22.3217 22.3297 23.5857C21.5457 24.8337 20.4497 25.8017 19.0417 26.4897C17.6337 27.1777 16.0017 27.5217 14.1457 27.5217H6.20173ZM10.9537 23.7297H13.9537C14.9137 23.7297 15.7457 23.5537 16.4497 23.2017C17.1697 22.8337 17.7297 22.3057 18.1297 21.6177C18.5297 20.9137 18.7297 20.0817 18.7297 19.1217C18.7297 18.1457 18.5297 17.3137 18.1297 16.6257C17.7297 15.9377 17.1697 15.4177 16.4497 15.0657C15.7457 14.6977 14.9137 14.5137 13.9537 14.5137H10.9537V23.7297ZM28.9099 27.5217L24.2779 14.5137H28.5979L32.2699 25.3857H30.2059L34.0219 14.5137H37.9099L41.5819 25.3857H39.5659L43.3579 14.5137H47.3659L42.7339 27.5217H38.3179L35.1979 18.5217H36.5419L33.3259 27.5217H28.9099ZM55.2236 27.7377C53.6876 27.7377 52.3436 27.4497 51.1916 26.8737C50.0556 26.2817 49.1676 25.4817 48.5276 24.4737C47.9036 23.4497 47.5916 22.2897 47.5916 20.9937C47.5916 19.6977 47.8956 18.5457 48.5036 17.5377C49.1276 16.5137 49.9836 15.7217 51.0716 15.1617C52.1596 14.5857 53.3836 14.2977 54.7436 14.2977C56.0236 14.2977 57.1916 14.5617 58.2476 15.0897C59.3036 15.6017 60.1436 16.3617 60.7676 17.3697C61.3916 18.3777 61.7036 19.6017 61.7036 21.0417C61.7036 21.2017 61.6956 21.3857 61.6796 21.5937C61.6636 21.8017 61.6476 21.9937 61.6316 22.1697H51.3356V19.7697H59.2076L57.4796 20.4417C57.4956 19.8497 57.3836 19.3377 57.1436 18.9057C56.9196 18.4737 56.5996 18.1377 56.1836 17.8977C55.7836 17.6577 55.3116 17.5377 54.7676 17.5377C54.2236 17.5377 53.7436 17.6577 53.3276 17.8977C52.9276 18.1377 52.6156 18.4817 52.3916 18.9297C52.1676 19.3617 52.0556 19.8737 52.0556 20.4657V21.1617C52.0556 21.8017 52.1836 22.3537 52.4396 22.8177C52.7116 23.2817 53.0956 23.6417 53.5916 23.8977C54.0876 24.1377 54.6796 24.2577 55.3676 24.2577C56.0076 24.2577 56.5516 24.1697 56.9996 23.9937C57.4636 23.8017 57.9196 23.5137 58.3676 23.1297L60.7676 25.6257C60.1436 26.3137 59.3756 26.8417 58.4636 27.2097C57.5516 27.5617 56.4716 27.7377 55.2236 27.7377ZM63.806 27.5217V9.71373H68.366V27.5217H63.806ZM71.3295 27.5217V9.71373H75.8895V27.5217H71.3295ZM85.3809 27.7377C83.9569 27.7377 82.6929 27.4497 81.5889 26.8737C80.4849 26.2977 79.6129 25.5057 78.9729 24.4977C78.3489 23.4737 78.0369 22.3057 78.0369 20.9937C78.0369 19.6817 78.3489 18.5217 78.9729 17.5137C79.6129 16.5057 80.4849 15.7217 81.5889 15.1617C82.6929 14.5857 83.9569 14.2977 85.3809 14.2977C86.8049 14.2977 88.0689 14.5857 89.1729 15.1617C90.2929 15.7217 91.1649 16.5057 91.7889 17.5137C92.4129 18.5217 92.7249 19.6817 92.7249 20.9937C92.7249 22.3057 92.4129 23.4737 91.7889 24.4977C91.1649 25.5057 90.2929 26.2977 89.1729 26.8737C88.0689 27.4497 86.8049 27.7377 85.3809 27.7377ZM85.3809 24.1137C85.9089 24.1137 86.3729 23.9937 86.7729 23.7537C87.1889 23.5137 87.5169 23.1617 87.7569 22.6977C87.9969 22.2177 88.1169 21.6497 88.1169 20.9937C88.1169 20.3377 87.9969 19.7857 87.7569 19.3377C87.5169 18.8737 87.1889 18.5217 86.7729 18.2817C86.3729 18.0417 85.9089 17.9217 85.3809 17.9217C84.8689 17.9217 84.4049 18.0417 83.9889 18.2817C83.5889 18.5217 83.2609 18.8737 83.0049 19.3377C82.7649 19.7857 82.6449 20.3377 82.6449 20.9937C82.6449 21.6497 82.7649 22.2177 83.0049 22.6977C83.2609 23.1617 83.5889 23.5137 83.9889 23.7537C84.4049 23.9937 84.8689 24.1137 85.3809 24.1137Z"/>
        <line x1="1.89469" y1="28.1235" x2="1.89469" y2="7.91301" stroke-width="3.78947"/>
        <line y1="6.01835" x2="24" y2="6.01835" stroke-width="3.78947"/>
        <line y1="1.13031" x2="14.6957" y2="1.13031" stroke-width="2.26087"/>
        </g>
        <defs>
        <clipPath id="clip0_1_4">
        <rect width="93" height="29" fill="white"/>
        </clipPath>
        </defs>
    </symbol>

    <symbol width="24" height="24" viewBox="0 0 24 24" id="search-icon">
        <path d="M22.5601 20.4452L19.9149 17.7981C23.3906 13.1533 22.4429 6.57034 17.7981 3.09462C13.1534 -0.381104 6.57037 0.566612 3.09465 5.21139C-0.381073 9.85616 0.566643 16.4392 5.21142 19.9149C8.94248 22.7069 14.067 22.7069 17.7981 19.9149L20.4452 22.562C21.0292 23.146 21.9761 23.146 22.56 22.562C23.144 21.978 23.144 21.0312 22.56 20.4472L22.5601 20.4452ZM11.5435 19.0179C7.41545 19.0179 4.06904 15.6715 4.06904 11.5435C4.06904 7.41542 7.41545 4.06901 11.5435 4.06901C15.6716 4.06901 19.018 7.41542 19.018 11.5435C19.0136 15.6697 15.6697 19.0136 11.5435 19.0179Z"/>
    </symbol>

    <symbol width="24" height="24" viewBox="0 0 24 24" id="account-icon">
        <path d="M11.8315 13.8502C7.92501 14.2033 4.94884 17.5042 5.0007 21.4262V21.6251C5.0007 22.3844 5.61629 23 6.37565 23C7.13502 23 7.75061 22.3844 7.75061 21.6251V21.3712C7.70928 18.9631 9.48641 16.9095 11.8755 16.6047C14.3974 16.3546 16.6445 18.1963 16.8946 20.7182C16.9094 20.8673 16.9168 21.017 16.917 21.1668V21.6251C16.917 22.3844 17.5326 23 18.2919 23C19.0513 23 19.6669 22.3844 19.6669 21.6251V21.1667C19.6624 17.1122 16.3719 13.829 12.3174 13.8335C12.1553 13.8337 11.9933 13.8392 11.8315 13.8502Z"/>
        <path d="M12.3339 11.9996C15.3713 11.9996 17.8337 9.53727 17.8337 6.49982C17.8337 3.46237 15.3713 1 12.3339 1C9.29641 1 6.83403 3.46237 6.83403 6.49982C6.83704 9.53603 9.29765 11.9966 12.3339 11.9996ZM12.3339 3.74991C13.8526 3.74991 15.0838 4.9811 15.0838 6.49982C15.0838 8.01855 13.8526 9.24973 12.3339 9.24973C10.8151 9.24973 9.58394 8.01855 9.58394 6.49982C9.58394 4.9811 10.8151 3.74991 12.3339 3.74991Z"/>
    </symbol>

    <symbol width="16" height="18" viewBox="0 0 16 18" fill="none" id="location-icon">
        <path fill-rule="evenodd" clip-rule="evenodd" d="M8.3 0C4.40667 0 1 4 1 7C1 10.1414 1.95261 11.6517 3.13237 12.9283C3.50757 13.3343 3.88089 13.7681 4.26057 14.2093C4.77721 14.8096 5.30564 15.4236 5.86667 16C5.91173 16.0463 5.95783 16.0942 6.00502 16.1433C6.57938 16.7407 7.31536 17.5062 8.3 17.5C9.28464 17.5062 10.0206 16.7407 10.595 16.1433C10.6422 16.0942 10.6883 16.0463 10.7333 16C11.2944 15.4236 11.8228 14.8096 12.3394 14.2093C12.7191 13.7681 13.0924 13.3343 13.4676 12.9283C14.6474 11.6517 15.6 10.1414 15.6 7C15.6 4 12.1933 0 8.3 0ZM8.2 9.4C9.41503 9.4 10.4 8.41503 10.4 7.2C10.4 5.98497 9.41503 5 8.2 5C6.98497 5 6 5.98497 6 7.2C6 8.41503 6.98497 9.4 8.2 9.4Z" fill="#695346"/>
    </symbol>

    <symbol width="22" height="22" viewBox="0 0 22 22" id="type-icon">
        <path d="M11 12.3332C10.4696 12.3332 9.96086 12.5439 9.58579 12.919C9.21071 13.294 9 13.8027 9 14.3332V19.0172H13V14.3332C13 13.8027 12.7893 13.294 12.4142 12.919C12.0391 12.5439 11.5304 12.3332 11 12.3332Z"/>
        <path d="M11.892 3.55545C11.6472 3.33508 11.3294 3.21313 11 3.21313C10.6706 3.21313 10.3528 3.33508 10.108 3.55545L3.66206 9.35692C3.24064 9.73621 3 10.2765 3 10.8435V16.8861C3 17.4519 3.22476 17.9945 3.62484 18.3946C4.02492 18.7947 4.56754 19.0195 5.13333 19.0195H7.66667V14.3335C7.66667 13.4494 8.01786 12.6016 8.64298 11.9764C9.2681 11.3513 10.1159 11.0001 11 11.0001C11.8841 11.0001 12.7319 11.3513 13.357 11.9764C13.9821 12.6016 14.3333 13.4494 14.3333 14.3335V19.0175H16.8667C17.4325 19.0175 17.9751 18.7927 18.3752 18.3926C18.7752 17.9925 19 17.4499 19 16.8841V10.8417C19 10.2746 18.7593 9.73419 18.3377 9.3549L11.892 3.55545Z"/>
    </symbol>

    <symbol width="22" height="22" viewBox="0 0 22 22" id="price-icon">
    <path d="M12.7 19.4C12.5636 19.4 12.5544 19.2031 12.6872 19.172C16.5345 18.2731 19.3999 14.8212 19.3999 10.7C19.3999 6.5788 16.5345 3.12694 12.6872 2.22801C12.5544 2.19698 12.5636 2 12.7 2C17.5049 2 21.3999 5.89511 21.3999 10.7C21.3999 15.5049 17.5049 19.4 12.7 19.4Z"/>
    <path d="M8.7 19.4C13.5049 19.4 17.4 15.5049 17.4 10.7C17.4 5.89512 13.5049 2 8.7 2C3.89512 2 0 5.89512 0 10.7C0 15.5049 3.89512 19.4 8.7 19.4ZM9.68615 4.47692C9.68615 4.21353 9.47263 4 9.20923 4C8.94583 4 8.73231 4.21353 8.73231 4.47692V5.48825C8.34428 5.53257 7.99351 5.64059 7.68 5.81231C7.25744 6.03914 6.92718 6.36318 6.68923 6.78443C6.45538 7.20105 6.33846 7.69406 6.33846 8.26344C6.33846 8.85597 6.44718 9.34666 6.66462 9.73551C6.88615 10.1244 7.1959 10.4507 7.59385 10.7146C7.9918 10.9738 8.45538 11.2122 8.98462 11.4298C9.32513 11.5686 9.5959 11.7145 9.79692 11.8672C10.0021 12.02 10.1477 12.1936 10.2338 12.388C10.3241 12.5824 10.3692 12.8116 10.3692 13.0754C10.3692 13.3347 10.32 13.5661 10.2215 13.7698C10.1272 13.9689 9.98359 14.1239 9.79077 14.235C9.60205 14.3461 9.3641 14.4017 9.07692 14.4017C8.90051 14.4017 8.72615 14.3739 8.55385 14.3184C8.38154 14.2628 8.22564 14.1679 8.08615 14.0337C7.94667 13.8948 7.8359 13.7096 7.75385 13.4782C7.72387 13.3936 7.69937 13.301 7.68034 13.2004C7.61878 12.8748 7.36214 12.6033 7.03077 12.6033H6.6C6.26863 12.6033 5.99477 12.8728 6.03153 13.2021C6.07141 13.5594 6.1491 13.8759 6.26462 14.1517C6.44103 14.5683 6.67692 14.9039 6.97231 15.1585C7.27179 15.4085 7.6041 15.5891 7.96923 15.7002C8.18523 15.7659 8.40267 15.8122 8.62154 15.839V16.7262C8.62154 16.9879 8.83369 17.2 9.09538 17.2C9.35708 17.2 9.56923 16.9879 9.56923 16.7262V15.8389C9.95186 15.7939 10.2985 15.6944 10.6092 15.5405C11.0482 15.3229 11.3887 15.0058 11.6308 14.5892C11.8769 14.1725 12 13.6633 12 13.0615C12 12.4736 11.8913 11.9876 11.6738 11.6034C11.4564 11.2191 11.1508 10.8951 10.7569 10.6312C10.3631 10.3628 9.89949 10.1174 9.36615 9.89521C9.00923 9.73782 8.7282 9.58275 8.52308 9.42998C8.32205 9.27722 8.17846 9.10826 8.09231 8.92309C8.01026 8.7333 7.96923 8.51341 7.96923 8.26344C7.96923 8.00421 8.00821 7.77507 8.08615 7.57601C8.16821 7.37696 8.29538 7.21957 8.46769 7.10384C8.6441 6.98811 8.86769 6.93025 9.13846 6.93025C9.32718 6.93025 9.49538 6.96959 9.64308 7.04829C9.79487 7.12699 9.9241 7.24503 10.0308 7.40242C10.1374 7.55518 10.2195 7.74266 10.2769 7.96486C10.2908 8.01852 10.303 8.07408 10.3135 8.13152C10.3732 8.45747 10.6317 8.72867 10.9631 8.72867H11.3877C11.7191 8.72867 11.9928 8.45907 11.9547 8.12989C11.9221 7.84827 11.8654 7.58726 11.7846 7.34687C11.6533 6.93951 11.4626 6.59695 11.2123 6.3192C10.9662 6.04145 10.6687 5.83083 10.32 5.68732C10.1234 5.60282 9.91212 5.54241 9.68615 5.50612V4.47692Z"/>
    </symbol>

    <symbol viewBox="0 0 16 16" id="star-icon">
    <path d="M7.0891 0.552822C7.32858 -0.184227 8.37131 -0.184227 8.61079 0.552822L9.91547 4.56823C10.0226 4.89784 10.3297 5.12101 10.6763 5.12101H14.8984C15.6733 5.12101 15.9956 6.1127 15.3686 6.56823L11.9529 9.04988C11.6725 9.2536 11.5552 9.61469 11.6623 9.94431L12.967 13.9597C13.2064 14.6968 12.3629 15.3097 11.7359 14.8541L8.32017 12.3725C8.03978 12.1688 7.66011 12.1688 7.37972 12.3725L3.96401 14.8541C3.33704 15.3097 2.49346 14.6968 2.73294 13.9597L4.03762 9.94431C4.14472 9.61469 4.02739 9.2536 3.747 9.04988L0.331298 6.56822C-0.295673 6.1127 0.0265479 5.12101 0.801527 5.12101H5.02357C5.37015 5.12101 5.67732 4.89784 5.78442 4.56823L7.0891 0.552822Z" fill="#FFC71E"/>
    </symbol>

    <symbol viewBox="0 0 5 9" id="arrow-icon">
    <path d="M0.419,9.000 L0.003,8.606 L4.164,4.500 L0.003,0.394 L0.419,0.000 L4.997,4.500 L0.419,9.000 Z"/>
    </symbol>

    <symbol viewBox="0 0 24 24" id="instagram-icon">
    <path d="M6.66667 0C2.99067 0 0 2.99067 0 6.66667V17.3333C0 21.0093 2.99067 24 6.66667 24H17.3333C21.0093 24 24 21.0093 24 17.3333V6.66667C24 2.99067 21.0093 0 17.3333 0H6.66667ZM6.66667 2.66667H17.3333C19.5387 2.66667 21.3333 4.46133 21.3333 6.66667V17.3333C21.3333 19.5387 19.5387 21.3333 17.3333 21.3333H6.66667C4.46133 21.3333 2.66667 19.5387 2.66667 17.3333V6.66667C2.66667 4.46133 4.46133 2.66667 6.66667 2.66667ZM18.6667 4C17.9303 4 17.3333 4.59696 17.3333 5.33333C17.3333 6.06971 17.9303 6.66667 18.6667 6.66667C19.403 6.66667 20 6.06971 20 5.33333C20 4.59696 19.403 4 18.6667 4ZM12 5.33333C8.324 5.33333 5.33333 8.324 5.33333 12C5.33333 15.676 8.324 18.6667 12 18.6667C15.676 18.6667 18.6667 15.676 18.6667 12C18.6667 8.324 15.676 5.33333 12 5.33333ZM12 8C14.2053 8 16 9.79467 16 12C16 14.2053 14.2053 16 12 16C9.79467 16 8 14.2053 8 12C8 9.79467 9.79467 8 12 8Z" fill="#4F3527"/>
    </symbol>

    <symbol viewBox="0 0 24 24" id="facebook-icon">
    <path d="M2.66667 0C1.196 0 0 1.196 0 2.66667V21.3333C0 22.804 1.196 24 2.66667 24H11.4948H15.2188H21.3333C22.804 24 24 22.804 24 21.3333V2.66667C24 1.196 22.804 0 21.3333 0H2.66667ZM2.66667 3.26667C2.66667 2.9353 2.9353 2.66667 3.26667 2.66667H20.7334C21.0648 2.66667 21.3334 2.93525 21.3334 3.26658L21.3359 20.7333C21.3359 21.0647 21.0673 21.3333 20.7359 21.3333H15.8188C15.4874 21.3333 15.2188 21.0647 15.2188 20.7333V16.6469C15.2188 16.3155 15.4874 16.0469 15.8188 16.0469H17.8449C18.1465 16.0469 18.4013 15.8229 18.4399 15.5237L18.7538 13.0909C18.8001 12.732 18.5206 12.4141 18.1588 12.4141H15.8396C15.5082 12.4141 15.2396 12.1454 15.2396 11.8141V10.099C15.2396 9.0483 15.5324 8.33855 17.0391 8.33855H18.3427C18.6741 8.33855 18.9427 8.06992 18.9427 7.73855V5.63819C18.9427 5.33043 18.7099 5.07183 18.4032 5.04677C17.6551 4.98567 16.9049 4.95619 16.1536 4.95833C13.3883 4.95833 11.4948 6.64612 11.4948 9.74479V11.8193C11.4948 12.1506 11.2262 12.4193 10.8948 12.4193H8.96979C8.63842 12.4193 8.36979 12.6879 8.36979 13.0193V15.4521C8.36979 15.7835 8.63842 16.0521 8.96979 16.0521H10.8948C11.2262 16.0521 11.4948 16.3207 11.4948 16.6521V20.7333C11.4948 21.0647 11.2262 21.3333 10.8948 21.3333H3.26667C2.9353 21.3333 2.66667 21.0647 2.66667 20.7333V3.26667Z" fill="#4F3527"/>
    </symbol>

    <symbol viewBox="0 0 24 24" id="twitter-icon">
    <path d="M4.33333 0C1.95204 0 0 1.95204 0 4.33333V19.6667C0 22.0479 1.95204 24 4.33333 24H19.6667C22.0479 24 24 22.0479 24 19.6667V4.33333C24 1.95204 22.0479 0 19.6667 0H4.33333ZM4.33333 2H19.6667C20.9667 2 22 3.03329 22 4.33333V19.6667C22 20.9667 20.9667 22 19.6667 22H4.33333C3.03329 22 2 20.9667 2 19.6667V4.33333C2 3.03329 3.03329 2 4.33333 2ZM5.21875 5.33333L10.3763 12.7044L5.21484 18.6667H6.57682L10.9792 13.5677L14.5469 18.6667H18.8385L13.3503 10.8229L18.0911 5.33334H16.7578L12.7487 9.96224L9.51042 5.33334L5.21875 5.33333ZM7.29036 6.46354H8.9987L16.7669 17.5365H15.0586L7.29036 6.46354Z" fill="#4F3527"/>
    </symbol>
</svg>







